<svg xmlns="http://www.w3.org/2000/svg" viewBox="0 0 1240 1754">
  <defs><style>@font-face{font-family:Newsreader;src:url('../fonts/Newsreader-SemiBold.ttf')}@font-face{font-family:Instrument Sans;src:url('../fonts/InstrumentSans-Regular.ttf')}</style></defs>
  <rect width="1240" height="1754" fill="#F3F0E8"/>
  <rect x="0" y="0" width="96" height="1754" fill="#1E332B"/>
  <g fill="none" stroke="#1E332B" stroke-width="10" stroke-linecap="round" opacity=".12"><path d="M60 390h520c160 0 170 180 350 180h380"/><path d="M60 500h380c170 0 190 240 390 240h410"/><path d="M60 610h620c150 0 160-200 330-200h230"/><path d="M60 720h470c160 0 170 170 340 170h370"/><path d="M60 830h300c190 0 220-250 410-250h470"/></g>
  <text x="170" y="205" fill="#1E332B" font-family="Instrument Sans,Arial,sans-serif" font-size="31" letter-spacing="6">PÉRICLÈS GESTION</text>
  <text x="170" y="1040" fill="#1E332B" font-family="Newsreader,Georgia,serif" font-size="120" font-weight="600">Rapport de</text>
  <text x="170" y="1155" fill="#1E332B" font-family="Newsreader,Georgia,serif" font-size="120" font-weight="600">pilotage</text>
  <text x="175" y="1230" fill="#716D64" font-family="Instrument Sans,Arial,sans-serif" font-size="34">Périmètre confié · Juin 2026</text>
  <text x="175" y="1600" fill="#1E332B" font-family="Instrument Sans,Arial,sans-serif" font-size="26">CONFIDENTIEL</text>
</svg>
