<svg xmlns="http://www.w3.org/2000/svg" viewBox="0 0 1080 1080">
  <defs><style>@font-face{font-family:Newsreader;src:url('../fonts/Newsreader-SemiBold.ttf')}@font-face{font-family:Instrument Sans;src:url('../fonts/InstrumentSans-Regular.ttf')}</style></defs>
  <rect width="1080" height="1080" fill="#1E332B"/>
  <g fill="none" stroke="#F3F0E8" stroke-width="6" stroke-linecap="round" opacity=".18"><path d="M-50 220h490c150 0 170 180 320 180h380"/><path d="M-50 330h360c160 0 180 240 370 240h450"/><path d="M-50 440h560c150 0 160-190 330-190h290"/><path d="M-50 550h420c160 0 180 160 350 160h410"/><path d="M-50 660h270c180 0 220-230 400-230h510"/></g>
  <text x="80" y="92" fill="#F3F0E8" font-family="Instrument Sans,Arial,sans-serif" font-size="24" letter-spacing="5">PÉRICLÈS GESTION</text>
  <text x="80" y="760" fill="#F3F0E8" font-family="Newsreader,Georgia,serif" font-size="92" font-weight="600">Tenir l'ensemble.</text>
  <text x="84" y="840" fill="#AAB9B0" font-family="Instrument Sans,Arial,sans-serif" font-size="31">Un seul point de responsabilité.</text>
  <line x1="84" y1="920" x2="1000" y2="920" stroke="#A48252" stroke-width="4"/>
  <text x="84" y="975" fill="#F3F0E8" font-family="Instrument Sans,Arial,sans-serif" font-size="24">periclesgestion.com</text>
</svg>
